<?xml version="1.0" encoding="UTF-8"?> <svg xmlns="http://www.w3.org/2000/svg" xmlns:xlink="http://www.w3.org/1999/xlink" xmlns:xodm="http://www.corel.com/coreldraw/odm/2003" xml:space="preserve" width="2680px" height="606px" version="1.1" style="shape-rendering:geometricPrecision; text-rendering:geometricPrecision; image-rendering:optimizeQuality; fill-rule:evenodd; clip-rule:evenodd" viewBox="0 0 2679.87 605.64"> <defs> <style type="text/css"> .fil1 {fill:#008CC5} .fil0 {fill:#27488D} .fil2 {fill:#27488D;fill-rule:nonzero} </style> </defs> <g id="Warstwa_x0020_1"> <metadata id="CorelCorpID_0Corel-Layer"></metadata> <g id="_1895005466640"> <g> <polygon class="fil0" points="600.06,0 219.64,300.03 0,0 139.25,600.06 "></polygon> <polygon class="fil1" points="420.04,0 267.87,120.01 180.02,0 235.72,240.02 "></polygon> </g> <path class="fil2" d="M560.13 344.69c9.77,-9.31 20.7,-17.91 32.8,-25.82 10.7,-6.51 23.49,-12.56 38.37,-18.14 14.89,-5.58 31.63,-8.37 50.24,-8.37 22.33,0 38.96,5.11 49.89,15.35 10.93,10.23 17.09,22.79 18.49,37.68l4.19 0c10.7,-9.77 22.32,-18.61 34.88,-26.52 10.7,-6.51 23.26,-12.56 37.68,-18.14 14.42,-5.58 29.77,-8.37 46.05,-8.37 24.19,0 43.84,6.63 58.96,19.88 15.12,13.26 22.68,30.36 22.68,51.29 0,10.7 -1.86,24.88 -5.58,42.56 -3.73,17.68 -7.91,36.98 -12.56,57.91l-29.31 136.06 -137.45 0 37.67 -182.11c1.4,-6.98 2.8,-13.72 4.19,-20.23 1.4,-6.52 2.1,-11.86 2.1,-16.05 0,-6.51 -1.87,-11.98 -5.59,-16.4 -3.72,-4.42 -9.07,-6.63 -16.05,-6.63 -8.83,0 -17.09,3.14 -24.77,9.42 -7.67,6.28 -13.6,11.52 -17.79,15.7l-45.35 216.3 -130.48 0 38.38 -182.11c0.93,-6.05 2.09,-12.21 3.49,-18.49 1.39,-6.28 2.09,-11.98 2.09,-17.09 0,-6.98 -1.75,-12.68 -5.23,-17.1 -3.49,-4.42 -8.73,-6.63 -15.7,-6.63 -8.38,0 -16.4,3.03 -24.08,9.07 -7.67,6.05 -13.6,11.17 -17.79,15.35l-46.05 217 -142.34 0 63.5 -300.03 113.73 0 12.56 44.66 4.18 0zm464 -18.84c23.73,-11.63 48.03,-20.12 72.92,-25.47 24.88,-5.35 52.68,-8.02 83.38,-8.02 29.77,0 54.42,2.32 73.96,6.97 19.53,4.66 35.12,11.4 46.75,20.24 11.63,8.84 19.77,19.3 24.42,31.4 4.65,12.09 6.97,25.82 6.97,41.16 0,8.84 -0.58,18.38 -1.74,28.61 -1.16,10.24 -2.44,18.84 -3.84,25.82l-32.79 153.5 -112.34 0 -12.56 -44.65 -4.18 0c-14.89,16.28 -32.22,28.72 -51.98,37.33 -19.77,8.6 -39.43,12.9 -58.96,12.9 -11.17,0 -22.1,-1.62 -32.8,-4.88 -10.7,-3.26 -20.23,-8.26 -28.61,-15 -8.37,-6.75 -15.11,-15.35 -20.23,-25.82 -5.12,-10.46 -7.68,-23.14 -7.68,-38.02 0,-24.19 6.63,-43.38 19.89,-57.57 13.26,-14.19 30.7,-24.88 52.33,-32.09 21.63,-7.22 46.05,-11.75 73.27,-13.61 27.21,-1.86 54.53,-2.79 81.98,-2.79 0.93,-4.65 2.09,-11.28 3.49,-19.89 1.39,-8.6 2.09,-16.16 2.09,-22.67 0,-8.38 -2.21,-16.17 -6.63,-23.38 -4.42,-7.21 -13.6,-10.81 -27.56,-10.81 -16.28,0 -28.26,4.77 -35.93,14.3 -7.68,9.54 -12.68,21.05 -15,34.54l-101.88 0 13.26 -62.1zm160.48 122.8l-12.56 0c-13.49,0 -25,1.75 -34.53,5.23 -9.54,3.49 -17.21,8.03 -23.03,13.61 -5.81,5.58 -10.12,11.86 -12.91,18.84 -2.79,6.98 -4.18,13.95 -4.18,20.93 0,11.17 2.9,19.54 8.72,25.12 5.81,5.58 12.67,8.37 20.58,8.37 9.77,0 19.42,-3.48 28.96,-10.46 9.53,-6.98 15.46,-16.28 17.79,-27.91l11.16 -53.73zm230.96 -148.62l113.73 0 10.46 52.33 4.89 0c10.7,-16.74 24.42,-30.93 41.16,-42.56 16.75,-11.63 38.85,-17.44 66.29,-17.44 1.86,0 4.77,0.11 8.72,0.35 3.96,0.23 8.37,0.93 13.26,2.09 4.88,1.16 10,2.79 15.35,4.88 5.35,2.1 10.58,5 15.7,8.73l-30.7 143.73 -76.06 0c-0.93,-28.84 -3.48,-48.96 -7.67,-60.35 -4.19,-11.4 -10.93,-17.1 -20.23,-17.1 -4.66,0 -9.66,1.05 -15.01,3.14 -5.35,2.09 -10.81,6.63 -16.39,13.61l-44.66 208.62 -142.34 0 63.5 -300.03zm415.15 300.03l-141.64 0 63.49 -300.03 143.04 0 -64.89 300.03zm83.03 -391.43c0,10.7 -2.21,20 -6.63,27.91 -4.41,7.9 -10.23,14.65 -17.44,20.23 -7.21,5.58 -15.47,9.77 -24.77,12.56 -9.3,2.79 -18.84,4.19 -28.61,4.19 -18.6,0 -34.19,-4.42 -46.74,-13.26 -12.56,-8.84 -18.85,-22.79 -18.85,-41.86 0,-10.24 2.1,-19.42 6.29,-27.56 4.18,-8.14 9.88,-14.89 17.09,-20.24 7.21,-5.35 15.58,-9.42 25.12,-12.21 9.53,-2.79 19.42,-4.19 29.65,-4.19 18.15,0 33.49,4.42 46.05,13.26 12.56,8.84 18.84,22.56 18.84,41.17zm173.74 136.06c9.77,-9.31 20.7,-17.91 32.79,-25.82 10.7,-6.51 23.26,-12.56 37.68,-18.14 14.42,-5.58 30.47,-8.37 48.15,-8.37 24.18,0 44.19,6.16 60,18.49 15.82,12.33 23.73,29.19 23.73,50.58 0,6.05 -0.7,13.38 -2.1,21.98 -1.39,8.61 -3.02,17.56 -4.88,26.87 -1.86,9.3 -3.84,18.72 -5.93,28.26 -2.09,9.53 -3.84,18.02 -5.23,25.46l-29.31 136.06 -141.64 0 38.37 -182.11c0.93,-6.05 2.1,-12.21 3.49,-18.49 1.4,-6.28 2.09,-11.98 2.09,-17.09 0,-6.98 -1.74,-12.68 -5.23,-17.1 -3.49,-4.42 -8.72,-6.63 -15.7,-6.63 -8.37,0 -16.39,3.03 -24.07,9.07 -7.67,6.05 -13.6,11.17 -17.79,15.35l-46.05 217 -142.34 0 63.49 -300.03 113.74 0 12.55 44.66 4.19 0zm373.99 115.13c-1.86,10.23 -3.14,20 -3.84,29.3 -0.69,9.3 -1.04,17.68 -1.04,25.12 0,4.19 0.23,8.84 0.69,13.95 0.47,5.12 1.52,9.89 3.14,14.31 1.63,4.42 3.96,8.14 6.98,11.16 3.03,3.03 7.33,4.54 12.91,4.54 4.19,0 8.95,-1.4 14.3,-4.19 5.35,-2.79 10.7,-6.74 16.05,-11.86 5.35,-5.12 10.47,-11.4 15.35,-18.84 4.89,-7.44 8.72,-15.81 11.52,-25.12l114.42 0 -18.14 74.66c-9.3,6.05 -20,11.16 -32.09,15.35 -12.1,4.19 -24.89,7.56 -38.38,10.12 -13.49,2.56 -27.21,4.42 -41.17,5.58 -13.95,1.16 -27.21,1.74 -39.77,1.74 -23.26,0 -44.88,-2.09 -64.89,-6.28 -20,-4.18 -37.44,-11.39 -52.33,-21.63 -14.88,-10.23 -26.63,-23.83 -35.23,-40.81 -8.61,-16.98 -12.91,-38.03 -12.91,-63.15 0,-22.79 3.6,-45.12 10.81,-66.98 7.21,-21.87 19.31,-41.29 36.29,-58.26 16.98,-16.98 39.77,-30.59 68.37,-40.82 28.61,-10.24 64.31,-15.35 107.11,-15.35 46.52,0 81.52,7.21 105.01,21.63 23.49,14.42 35.23,36.98 35.23,67.68 0,12.56 -1.86,26.16 -5.58,40.82 -3.72,14.65 -9.3,27.09 -16.74,37.33l-196.07 0zm92.8 -83.03c0,-14.43 -2.33,-24.19 -6.98,-29.31 -4.65,-5.12 -10.23,-7.68 -16.74,-7.68 -7.45,0 -14.31,2.45 -20.59,7.33 -6.28,4.88 -11.97,11.4 -17.09,19.54 -5.12,8.14 -9.77,17.44 -13.96,27.91 -4.18,10.46 -7.67,21.51 -10.46,33.14l79.54 0c0.93,-5.58 1.86,-11.4 2.79,-17.44 0.93,-5.12 1.75,-10.7 2.44,-16.75 0.7,-6.05 1.05,-11.63 1.05,-16.74z"></path> </g> </g> </svg> 